<svg width="1200" height="630" viewBox="0 0 1200 630" fill="none" xmlns="http://www.w3.org/2000/svg">
  <rect width="1200" height="630" fill="#0a0a0f"/>
  <rect x="0" y="0" width="1200" height="630" fill="url(#grad)" fill-opacity="0.4"/>
  <defs>
    <linearGradient id="grad" x1="0" y1="0" x2="1" y2="1">
      <stop offset="0%" stop-color="#a78bfa" stop-opacity="0.15"/>
      <stop offset="100%" stop-color="#6366f1" stop-opacity="0.05"/>
    </linearGradient>
  </defs>
  <!-- Decorative grid dots -->
  <g opacity="0.15">
    <circle cx="100" cy="100" r="2" fill="#a78bfa"/>
    <circle cx="300" cy="80" r="2" fill="#a78bfa"/>
    <circle cx="500" cy="120" r="2" fill="#a78bfa"/>
    <circle cx="700" cy="90" r="2" fill="#a78bfa"/>
    <circle cx="900" cy="110" r="2" fill="#a78bfa"/>
    <circle cx="1100" cy="80" r="2" fill="#a78bfa"/>
    <circle cx="200" cy="200" r="1.5" fill="#a78bfa"/>
    <circle cx="400" cy="180" r="1.5" fill="#a78bfa"/>
    <circle cx="600" cy="220" r="1.5" fill="#a78bfa"/>
    <circle cx="800" cy="190" r="1.5" fill="#a78bfa"/>
    <circle cx="1000" cy="210" r="1.5" fill="#a78bfa"/>
    <circle cx="150" cy="300" r="1.5" fill="#a78bfa"/>
    <circle cx="350" cy="280" r="1.5" fill="#a78bfa"/>
    <circle cx="550" cy="320" r="1.5" fill="#a78bfa"/>
    <circle cx="750" cy="290" r="1.5" fill="#a78bfa"/>
    <circle cx="950" cy="310" r="1.5" fill="#a78bfa"/>
    <circle cx="1050" cy="400" r="1.5" fill="#a78bfa"/>
    <circle cx="250" cy="500" r="2" fill="#a78bfa"/>
    <circle cx="450" cy="520" r="2" fill="#a78bfa"/>
    <circle cx="650" cy="480" r="2" fill="#a78bfa"/>
    <circle cx="850" cy="510" r="2" fill="#a78bfa"/>
  </g>
  <!-- Content -->
  <text x="80" y="240" font-family="'Inter', sans-serif" font-size="88" font-weight="800" fill="#e4e4e7" letter-spacing="-4">Xi-kki</text>
  <text x="80" y="310" font-family="'Inter', sans-serif" font-size="32" font-weight="400" fill="#888899" letter-spacing="-1">AI Agent &amp; Web3 Builder</text>
  <text x="80" y="370" font-family="'Inter', sans-serif" font-size="22" font-weight="400" fill="#555566">Building AI agents, Web3 protocols &amp; foodtech tools for Africa.</text>
  <!-- Accent line -->
  <rect x="80" y="420" width="80" height="3" rx="1.5" fill="#a78bfa"/>
  <!-- Badges -->
  <rect x="80" y="450" width="140" height="36" rx="8" fill="#181825" stroke="#252535" stroke-width="1"/>
  <text x="105" y="473" font-family="'Inter', sans-serif" font-size="14" font-weight="500" fill="#a78bfa">✦ AI Agent Builder</text>
  <rect x="235" y="450" width="140" height="36" rx="8" fill="#181825" stroke="#252535" stroke-width="1"/>
  <text x="258" y="473" font-family="'Inter', sans-serif" font-size="14" font-weight="500" fill="#60a5fa">✦ Web3 Developer</text>
</svg>
